<svg height="682pt" viewBox="-21 -103 682.66669 682" width="682pt" xmlns="http://www.w3.org/2000/svg"><g fill-rule="evenodd"><path d="m577.5 294.832031h50v100h-50zm0 0" fill="#cff5fd"/><path d="m577.5 294.832031v125h-50v-150h50zm0 0" fill="#b278d3"/><path d="m527.5 282.332031v125h-113.949219c-20.183593 30.148438-54.546875 50-93.550781 50s-73.367188-19.851562-93.550781-50h-113.949219v-125h113.949219c5.273437-7.875 11.515625-15.046875 18.550781-21.347656 19.902344-17.816406 46.1875-28.652344 75-28.652344s55.097656 10.835938 75 28.652344c7.035156 6.300781 13.277344 13.472656 18.550781 21.347656zm0 0" fill="#d1aee5"/><path d="m112.5 282.332031v137.5h-50v-150h50zm0 0" fill="#b278d3"/><path d="m12.5 294.832031h50v100h-50zm0 0" fill="#cff5fd"/><path d="m245 260.984375v-78.652344h150v78.652344c-19.902344-17.816406-46.1875-28.652344-75-28.652344s-55.097656 10.835938-75 28.652344zm0 0" fill="#b278d3"/><path d="m295 107.332031h50v75h-50zm0 0" fill="#e3eaef"/><path d="m345 107.332031h-87.5c-6.988281 0-13.304688-2.871093-17.84375-7.492187l-42.507812-42.507813h-139.648438c-13.804688 0-25-11.195312-25-25 0-13.808593 11.195312-25 25-25h150c6.398438 0 12.792969 2.441407 17.675781 7.324219l42.675781 42.675781h114.648438c13.804688 0 25 11.191407 25 25 0 13.808594-11.195312 25-25 25zm0 0" fill="#ff764e"/></g><path d="m627.5 382.332031h-37.5v-75h37.5c6.90625 0 12.5-5.59375 12.5-12.5 0-6.902343-5.59375-12.5-12.5-12.5h-37.5v-12.5c0-6.902343-5.601562-12.5-12.5-12.5h-50c-6.90625 0-12.5 5.597657-12.5 12.5h-94.996094c-3.828125-5.101562-8.015625-9.863281-12.503906-14.265625v-73.234375c0-6.902343-5.59375-12.5-12.5-12.5h-37.5v-50h25c20.671875 0 37.5-16.820312 37.5-37.5 0-20.675781-16.828125-37.5-37.5-37.5h-50v-12.5c0-6.902343-5.59375-12.5-12.5-12.5s-12.5 5.597657-12.5 12.5v12.5h-34.46875l-39.015625-39.011719c-7.082031-7.085937-16.5-10.980468-26.515625-10.980468h-18.746094c-6.898437 0-12.5 5.59375-12.5 12.5 0 6.898437 5.601563 12.492187 12.5 12.492187h18.746094c3.339844 0 6.476562 1.304688 8.835938 3.664063l42.679687 42.679687c2.34375 2.34375 5.519531 3.65625 8.835937 3.65625h114.648438c6.890625 0 12.5 5.613281 12.5 12.5 0 6.894531-5.609375 12.5-12.5 12.5h-125c-3.378906 0-6.546875-1.328125-9.003906-3.828125l-42.511719-42.507812c-2.34375-2.34375-5.519531-3.664063-8.835937-3.664063h-139.648438c-6.890625 0-12.5-5.605469-12.5-12.5 0-6.886719 5.609375-12.5 12.5-12.5h18.753906c6.90625 0 12.5-5.59375 12.5-12.5 0-6.902343-5.59375-12.5-12.5-12.5h-18.753906c-20.671875 0-37.5 16.824219-37.5 37.5 0 20.679688 16.828125 37.5 37.5 37.5h134.472656l38.761719 38.765625c7.113281 7.246094 16.617187 11.234375 26.765625 11.234375h25v50h-37.5c-6.90625 0-12.5 5.597657-12.5 12.5v73.238281c-4.488281 4.398438-8.675781 9.160157-12.503906 14.261719h-94.996094c0-6.902343-5.59375-12.5-12.5-12.5h-50c-6.898438 0-12.5 5.597657-12.5 12.5v12.5h-37.5c-6.90625 0-12.5 5.597657-12.5 12.5 0 6.90625 5.59375 12.5 12.5 12.5h37.5v75h-37.5c-6.90625 0-12.5 5.597657-12.5 12.5 0 6.90625 5.59375 12.5 12.5 12.5h37.5v12.5c0 6.90625 5.601562 12.5 12.5 12.5h50c6.90625 0 12.5-5.59375 12.5-12.5h94.996094c23.582031 31.433594 60.476562 50 100.003906 50s76.421875-18.566406 100.003906-50h94.996094c0 6.90625 5.59375 12.5 12.5 12.5h50c6.898438 0 12.5-5.59375 12.5-12.5v-12.5h37.5c6.90625 0 12.5-5.59375 12.5-12.5 0-6.902343-5.59375-12.5-12.5-12.5zm-320-262.5h25v50h-25zm-50 75h125v41.730469c-18.714844-10.8125-40.1875-16.730469-62.5-16.730469s-43.785156 5.925781-62.5 16.730469zm-157.5 212.5h-25v-125h25zm313.550781-12.5c-4.171875 0-8.066406 2.082031-10.386719 5.546875-18.636718 27.839844-49.726562 44.453125-83.164062 44.453125s-64.527344-16.613281-83.164062-44.453125c-2.3125-3.464844-6.214844-5.546875-10.386719-5.546875h-101.449219v-100h101.449219c4.171875 0 8.066406-2.078125 10.386719-5.546875 18.636718-27.835937 49.726562-44.453125 83.164062-44.453125s64.527344 16.617188 83.164062 44.453125c2.3125 3.46875 6.214844 5.546875 10.386719 5.546875h101.449219v50h-31.246094c-6.902344 0-12.5 5.597657-12.5 12.5 0 6.90625 5.597656 12.5 12.5 12.5h31.246094v25zm151.449219 12.5h-25v-125h25zm0 0"/><path d="m427.507812 344.832031h-.007812c-6.90625 0-12.496094 5.597657-12.496094 12.5 0 6.90625 5.601563 12.5 12.503906 12.5 6.90625 0 12.5-5.59375 12.5-12.5 0-6.902343-5.59375-12.5-12.5-12.5zm0 0"/><path d="m132.507812 19.832031c6.90625 0 12.5-5.59375 12.5-12.5 0-6.902343-5.59375-12.5-12.5-12.5h-.007812c-6.898438 0-12.496094 5.597657-12.496094 12.5 0 6.90625 5.601563 12.5 12.503906 12.5zm0 0"/></svg>